<?xml version="1.0" encoding="UTF-8"?>
<svg width="582px" height="162px" viewBox="0 0 582 162" version="1.1" xmlns="http://www.w3.org/2000/svg" xmlns:xlink="http://www.w3.org/1999/xlink">
    <title>Logo Footer</title>
    <defs>
        <filter color-interpolation-filters="auto" id="filter-1">
            <feColorMatrix in="SourceGraphic" type="matrix" values="0 0 0 0 1.000000 0 0 0 0 1.000000 0 0 0 0 1.000000 0 0 0 1.000000 0"></feColorMatrix>
        </filter>
    </defs>
    <g id="Logos" stroke="none" stroke-width="1" fill="none" fill-rule="evenodd">
        <g id="Logo-Footer-White" transform="translate(-69.000000, -279.000000)">
            <g id="Logo-Footer" transform="translate(69.000000, 279.000000)">
                <g filter="url(#filter-1)" id="TreeNoun">
                    <g>
                        <path d="M84.3503648,122.791946 C82.627737,121.087248 80.9051093,116.825503 80.0437958,114.268456 C79.1824816,113.416107 80.0437958,109.154363 80.0437958,108.302013 C80.0437958,104.892617 80.0437958,104.892617 80.0437958,102.335571 C80.9051093,100.630873 80.9051093,98.0738253 80.0437958,96.3691273 C78.321168,94.6644293 79.1824816,92.9597314 80.0437958,90.4026847 C80.0437958,88.6979867 80.9051093,84.4362414 82.627737,82.7315435 C85.211679,78.4697988 89.518248,75.9127515 93.8248176,75.0604029 C94.6861311,74.2080535 94.6861311,74.2080535 95.5474454,74.2080535 C97.2700731,73.3557049 99.8540143,73.3557049 101.576642,73.3557049 C105.021898,72.5033556 108.467153,72.5033556 111.912408,72.5033556 C113.635036,73.3557049 114.49635,73.3557049 116.218978,72.5033556 C116.218978,72.5033556 117.080292,73.3557049 116.218978,71.6510069 C115.357664,70.7986576 113.635036,70.7986576 112.773723,70.7986576 C109.328467,69.9463089 106.744525,69.9463089 103.29927,69.9463089 C101.576642,69.9463089 100.715329,69.9463089 100.715329,67.3892616 C102.437956,63.1275168 107.605839,63.1275168 109.328467,60.5704698 C110.189781,59.7181208 110.189781,59.7181208 109.328467,59.7181208 C107.605839,60.5704698 105.021898,61.4228188 103.29927,61.4228188 C98.9927008,63.1275168 98.1313866,63.9798658 95.5474454,66.5369128 C92.9635034,68.2416109 91.2408757,69.9463089 88.6569344,69.9463089 C86.9343067,69.9463089 85.211679,69.9463089 83.4890512,70.7986576 C83.4890512,64.8322148 86.0729925,57.1610738 89.518248,51.1946309 L89.518248,51.1946309 C90.3795622,48.6375839 91.2408757,46.9328859 92.9635034,44.3758389 C93.8248176,43.5234899 93.8248176,42.6711409 93.8248176,40.9664429 C92.1021899,40.9664429 91.2408757,43.5234899 90.3795622,44.3758389 C88.6569344,46.0805369 87.7956202,47.7852349 86.9343067,49.4899329 C83.4890512,54.6040269 82.627737,42.6711409 82.627737,40.9664429 C82.627737,40.1140939 83.4890512,35.852349 82.627737,35 C81.7664235,35.852349 81.7664235,38.409396 81.7664235,38.409396 C80.9051093,40.9664429 80.9051093,42.6711409 80.9051093,44.3758389 C80.0437958,47.7852349 80.0437958,51.1946309 80.0437958,53.7516779 C79.1824816,58.8657718 79.1824816,60.5704698 77.4598538,64.8322148 C72.2919706,74.2080535 70.5693429,85.2885908 69.7080294,95.5167787 C68.8467152,89.5503354 67.9854014,83.5838928 67.1240876,76.7651009 C66.2627737,75.0604029 66.2627737,73.3557049 66.2627737,70.7986576 C65.4014598,69.0939596 66.2627737,65.6845638 67.1240876,63.1275168 C67.9854014,58.8657718 69.7080294,54.6040269 69.7080294,49.4899329 C69.7080294,48.6375839 70.5693429,41.8187919 70.5693429,40.9664429 C69.7080294,40.1140939 68.8467152,42.6711409 68.8467152,42.6711409 C67.9854014,46.0805369 67.9854014,49.4899329 67.1240876,52.8993289 C66.2627737,54.6040269 63.6788321,61.4228188 61.0948905,61.4228188 C60.2335766,61.4228188 59.3722628,59.7181208 58.5109489,58.8657718 C57.649635,57.1610738 56.7883212,55.4563759 55.9270073,54.6040269 C53.3430657,51.1946309 52.4817518,49.4899329 49.8978102,46.9328859 C49.0364963,45.2281879 48.1751824,44.3758389 47.3138686,43.5234899 C46.4525547,42.6711409 45.5912408,43.5234899 45.5912408,43.5234899 C45.5912408,46.0805369 47.3138686,47.7852349 49.0364963,49.4899329 C51.620438,52.0469799 53.3430657,57.1610738 55.0656934,59.7181208 C56.7883212,65.6845638 56.7883212,70.7986576 56.7883212,76.7651009 C49.8978102,75.9127515 46.4525547,75.9127515 40.4233577,76.7651009 C36.9781022,76.7651009 33.5328467,78.4697988 30.0875913,79.3221475 C30.0875913,79.3221475 29.2262774,80.1744968 29.2262774,81.0268455 C31.810219,81.0268455 34.3941606,80.1744968 36.9781022,79.3221475 C42.1459854,78.4697988 49.0364963,80.1744968 53.3430657,83.5838928 C55.9270073,86.1409394 58.5109489,89.5503354 60.2335766,92.9597314 C61.9562044,98.0738253 61.0948905,97.2214766 61.9562044,102.335571 C61.9562044,104.892617 61.9562044,106.597315 61.0948905,109.154363 C61.0948905,110.859061 61.0948905,112.563758 60.2335766,115.120805 C59.3722628,116.825503 58.5109489,117.677852 58.5109489,119.38255 C57.649635,121.939597 55.9270073,123.644295 53.3430657,124.496644 C49.0364963,126.201342 49.8978102,125.348993 45.5912408,124.496644 C40.4233577,123.644295 41.2846715,127.90604 36.1167883,127.90604 C36.1167883,127.90604 35.2554745,127.90604 35.2554745,127.90604 C30.9489051,127.053691 28.3649635,127.053691 24.9197081,128.758389 C22.3357665,129.610738 20.6131387,129.610738 18.0291971,128.758389 C18.0291971,128.758389 15.4452555,128.758389 15.4452555,128.758389 C15.4452555,128.758389 15.4452555,128.758389 14.5839416,128.758389 C13.7226277,128.758389 12,128.758389 12,128.758389 C12,128.758389 14.5839416,129.610738 14.5839416,129.610738 C17.1678833,129.610738 21.4744526,131.315436 24.0583942,130.463087 C26.6423358,129.610738 27.5036497,128.758389 30.0875913,129.610738 C30.9489051,129.610738 34.3941606,130.463087 35.2554745,130.463087 C36.1167883,132.167785 34.3941606,135.577181 33.5328467,136.42953 C31.810219,138.986577 30.0875913,138.986577 27.5036497,140.691275 C27.5036497,141.543624 25.7810219,143.248322 25.7810219,143.248322 C25.7810219,143.248322 28.3649635,141.543624 29.2262774,140.691275 C30.9489051,139.838926 32.6715329,138.986577 34.3941606,137.281879 C37.8394161,134.724832 38.7007299,131.315436 42.1459854,128.758389 C43.0072992,128.758389 43.0072992,127.90604 43.8686131,127.90604 L43.8686131,127.90604 C45.5912408,127.90604 46.4525547,130.463087 50.7591241,130.463087 C50.7591241,130.463087 51.620438,130.463087 52.4817518,130.463087 C53.3430657,129.610738 54.2043796,129.610738 55.9270073,129.610738 C56.7883212,130.463087 58.5109489,131.315436 56.7883212,132.167785 C55.9270073,133.020134 53.3430657,134.724832 52.4817518,135.577181 C49.0364963,138.134228 49.0364963,138.134228 45.5912408,138.986577 C40.4233577,140.691275 37.8394161,144.100671 34.3941606,146.657718 C31.810219,148.362416 30.0875913,147.510067 28.3649635,148.362416 C27.5036497,149.214765 28.3649635,149.214765 29.2262774,149.214765 C33.5328467,148.362416 33.5328467,148.362416 36.9781022,145.805369 C38.7007299,144.95302 43.0072992,141.543624 45.5912408,142.395973 C47.3138686,143.248322 46.4525547,144.95302 45.5912408,145.805369 C44.729927,147.510067 44.729927,149.214765 43.0072992,150.919463 C41.2846715,151.771812 40.4233577,152.624161 38.7007299,154.328859 C37.8394161,155.181208 36.9781022,156.033557 36.1167883,156.885906 C36.1167883,156.885906 33.5328467,158.590604 34.3941606,159.442953 C34.3941606,159.442953 36.1167883,158.590604 36.1167883,158.590604 C37.8394161,157.738255 37.8394161,156.885906 39.5620438,156.033557 C40.4233577,155.181208 41.2846715,154.328859 43.0072992,153.47651 C47.3138686,150.067114 48.1751824,148.362416 49.8978102,143.248322 C51.620438,140.691275 52.4817518,139.838926 54.2043796,138.134228 C55.9270073,137.281879 58.5109489,136.42953 60.2335766,136.42953 L61.0948905,136.42953 C61.9562044,137.281879 62.8175182,139.838926 63.6788321,140.691275 C65.4014598,143.248322 67.1240876,144.95302 67.9854014,148.362416 C67.9854014,150.067114 67.1240876,152.624161 67.1240876,155.181208 C67.1240876,156.033557 67.1240876,157.738255 67.1240876,159.442953 C67.1240876,159.442953 67.1240876,162 67.9854014,161.147651 C68.8467152,161.147651 68.8467152,157.738255 68.8467152,156.885906 C68.8467152,156.033557 68.8467152,150.919463 71.4306571,150.067114 C73.1532848,150.067114 75.7372261,151.771812 76.5985403,153.47651 C77.4598538,155.181208 78.321168,156.033557 79.1824816,157.738255 C80.0437958,157.738255 83.4890512,162 84.3503648,162 C84.3503648,162 84.3503648,162 84.3503648,162 C82.627737,159.442953 80.0437958,156.885906 78.321168,154.328859 C76.5985403,151.771812 76.5985403,150.919463 73.1532848,148.362416 C72.2919706,147.510067 71.4306571,147.510067 70.5693429,145.805369 C70.5693429,144.95302 69.7080294,142.395973 68.8467152,141.543624 C68.8467152,141.543624 68.8467152,140.691275 68.8467152,140.691275 C67.1240876,136.42953 68.8467152,135.577181 70.5693429,133.020134 C71.4306571,132.167785 72.2919706,131.315436 74.0145984,131.315436 C76.5985403,130.463087 79.1824816,132.167785 80.9051093,133.872483 C84.3503648,137.281879 85.211679,138.986577 85.211679,142.395973 C86.0729925,146.657718 86.9343067,146.657718 88.6569344,150.067114 C89.518248,152.624161 89.518248,155.181208 90.3795622,157.738255 C91.2408757,158.590604 91.2408757,156.885906 91.2408757,156.885906 C91.2408757,154.328859 90.3795622,151.771812 89.518248,149.214765 C89.518248,148.362416 87.7956202,145.805369 88.6569344,144.100671 C89.518248,143.248322 90.3795622,144.100671 91.2408757,144.95302 C92.1021899,145.805369 92.9635034,146.657718 94.6861311,147.510067 C95.5474454,148.362416 97.2700731,149.214765 98.9927008,150.067114 C101.576642,151.771812 102.437956,154.328859 103.29927,156.885906 C103.29927,157.738255 104.160584,160.295302 105.021898,160.295302 C105.883212,159.442953 105.021898,158.590604 105.021898,157.738255 C104.160584,155.181208 104.160584,152.624161 101.576642,150.067114 C99.8540143,148.362416 96.4087589,145.805369 94.6861311,144.100671 C91.2408757,140.691275 88.6569344,138.986577 87.7956202,134.724832 C87.7956202,132.167785 88.6569344,132.167785 90.3795622,131.315436 C92.9635034,130.463087 94.6861311,132.167785 96.4087589,133.872483 C98.9927008,137.281879 101.576642,139.838926 105.883212,140.691275 C107.605839,141.543624 108.467153,141.543624 110.189781,142.395973 C111.912408,142.395973 109.328467,141.543624 109.328467,141.543624 C106.744525,139.838926 104.160584,139.838926 102.437956,137.281879 C101.576642,136.42953 101.576642,134.724832 103.29927,134.724832 C103.29927,134.724832 104.160584,134.724832 105.021898,134.724832 C106.744525,134.724832 107.605839,134.724832 109.328467,134.724832 C114.49635,135.577181 116.218978,135.577181 120.525547,132.167785 C123.109489,131.315436 123.970803,130.463087 126.554745,130.463087 C127.416058,130.463087 128.277372,130.463087 129.138686,130.463087 C130,130.463087 130,130.463087 130,129.610738 C129.138686,129.610738 126.554745,129.610738 125.69343,129.610738 C120.525547,129.610738 119.664234,133.872483 113.635036,133.020134 C111.051095,133.020134 109.328467,132.167785 106.744525,132.167785 C105.021898,131.315436 102.437956,131.315436 99.8540143,130.463087 L99.8540143,130.463087 C96.4087589,129.610738 96.4087589,127.90604 93.8248176,127.053691 C91.2408757,125.348993 88.6569344,127.053691 86.9343067,125.348993 C86.0729925,124.496644 85.211679,123.644295 84.3503648,122.791946 Z" id="Path" fill="#000000" fill-rule="nonzero"></path>
                        <path d="M59.2324126,24 C53.065972,27.4285714 52.1850519,36.8571429 57.4705724,42 C64.5179332,37.7142857 64.5179332,28.2857143 59.2324126,24 Z" id="Path" fill="#000000" fill-rule="nonzero"></path>
                        <path d="M71.7033986,19 C65.0134999,20.5789474 60.8323131,28.4736842 64.1772625,34 C71.7033986,32.4210526 75.048348,25.3157895 71.7033986,19 Z" id="Path" fill="#000000" fill-rule="nonzero"></path>
                        <path d="M82.6671353,25 C73.948779,25 68.1365412,32.0588235 69.1052471,40 C77.8236042,40 84.6045479,32.9411765 82.6671353,25 Z" id="Path" fill="#000000" fill-rule="nonzero"></path>
                        <path d="M44,44.6163976 C41.6,38.2489837 34.4,35.0652767 28,38.2489837 C30.4,45.4123244 37.6,47.8001046 44,44.6163976 Z" id="Path" fill="#000000" fill-rule="nonzero"></path>
                        <path d="M65.9415929,5 C59.8049068,8 58.0515679,15.5 62.4349152,20 C69.4482706,17.75 71.2016095,9.5 65.9415929,5 Z" id="Path" fill="#000000" fill-rule="nonzero"></path>
                        <path d="M44.9667423,25 C39.0350074,30.1428571 39.8823981,38.7142857 46.6615237,43 C51.745868,37.8571429 50.8984773,28.4285714 44.9667423,25 Z" id="Path" fill="#000000" fill-rule="nonzero"></path>
                        <path d="M117,75.3017008 C117,83.1673452 124,88.4111078 131,86.6631869 C131,79.6715034 124,73.5537799 117,75.3017008 Z" id="Path" fill="#000000" fill-rule="nonzero"></path>
                        <path d="M115.33583,46 C113.593009,39 118.821473,32 126.66417,32 C128.406991,39 123.178527,46 115.33583,46 Z" id="Path" fill="#000000" fill-rule="nonzero"></path>
                        <path d="M99.9116436,25.0878023 C100.839086,33.3824395 94.3469863,39.833824 86,38.9121977 C86,30.6175605 92.4921005,24.166176 99.9116436,25.0878023 Z" id="Path" fill="#000000" fill-rule="nonzero"></path>
                        <path d="M91.9795917,14 C96.1122451,19.25 93.6326529,26.75 87.020408,29 C82.8877553,23.75 85.3673468,16.25 91.9795917,14 Z" id="Path" fill="#000000" fill-rule="nonzero"></path>
                        <path d="M111,35.1357474 C109.421053,41.6535802 102.315789,45.7272257 96,43.2830384 C97.5789473,35.9504765 104.684211,31.876831 111,35.1357474 Z" id="Path" fill="#000000" fill-rule="nonzero"></path>
                        <path d="M38.6641696,36 C40.406991,28.0588235 35.1785268,21 27.3358304,21 C25.593009,28.0588235 30.8214732,36 38.6641696,36 Z" id="Path" fill="#000000" fill-rule="nonzero"></path>
                        <path d="M75.1772626,7 C71.8323131,12.5263158 76.0134996,20.4210526 82.7033986,22 C86.0483481,15.6842105 82.7033986,8.57894735 75.1772626,7 Z" id="Path" fill="#000000" fill-rule="nonzero"></path>
                        <path d="M103.073773,75.0793951 C102.203383,82.5590596 109.166497,88.3765758 117,86.7144283 C117,80.0658379 110.036886,74.2483216 103.073773,75.0793951 Z" id="Path" fill="#000000" fill-rule="nonzero"></path>
                        <path d="M134,62.7482993 C133.166666,69.5510203 124.833333,73.8027213 119,71.2517005 C119.833333,64.4489796 127.333333,60.1972789 134,62.7482993 Z" id="Path" fill="#000000" fill-rule="nonzero"></path>
                        <path d="M54,43.3337643 C61.4666667,41.6116857 68,46.7779214 68,53.6662357 C61.4666667,55.3883143 54,50.2220786 54,43.3337643 Z" id="Path" fill="#000000" fill-rule="nonzero"></path>
                        <path d="M124.31225,51 C117.312614,51.8823529 112.062887,58.9411765 114.68775,66 C121.687386,66 126.937113,58.0588235 124.31225,51 Z" id="Path" fill="#000000" fill-rule="nonzero"></path>
                        <path d="M109.768223,41 C115.969673,45.2857143 115.083752,54.7142857 108.882302,59 C103.566773,53.8571429 103.566773,45.2857143 109.768223,41 Z" id="Path" fill="#000000" fill-rule="nonzero"></path>
                        <path d="M88,57.9795918 C93.6000003,62.1122449 101.6,59.6326531 104,53.0204082 C98.4000003,48.8877551 90.4000003,51.3673469 88,57.9795918 Z" id="Path" fill="#000000" fill-rule="nonzero"></path>
                        <path d="M9,83.9284515 C15,89.1158463 23.5714286,87.3867147 27,81.3347537 C21.8571429,76.1473588 13.2857143,77.011925 9,83.9284515 Z" id="Path" fill="#000000" fill-rule="nonzero"></path>
                        <path d="M34,76.2606149 C31.6,69.9506375 23.6,66.7956489 18,70.739385 C19.6,77.0493624 27.6,80.2043511 34,76.2606149 Z" id="Path" fill="#000000" fill-rule="nonzero"></path>
                        <path d="M24.087862,96.9216596 C31.4658874,97.8439124 38.8439127,90.4658872 37.9216595,83.087862 C29.621381,82.1656092 23.1656089,88.6213809 24.087862,96.9216596 Z" id="Path" fill="#000000" fill-rule="nonzero"></path>
                        <path d="M48,52.8823016 C42.8571429,47.5667728 34.2857143,47.5667728 30,53.7682231 C34.2857143,59.9696734 43.7142857,59.0837519 48,52.8823016 Z" id="Path" fill="#000000" fill-rule="nonzero"></path>
                        <path d="M48,71.7510163 C45.6,64.5876756 38.4,62.1998954 32,65.3836024 C34.4,71.7510163 42.4,74.9347233 48,71.7510163 Z" id="Path" fill="#000000" fill-rule="nonzero"></path>
                        <path d="M16,51.4109841 C21.1428572,56.8768886 29.7142857,55.9659045 34,49.5890159 C28.8571429,44.1231114 19.4285715,45.0340955 16,51.4109841 Z" id="Path" fill="#000000" fill-rule="nonzero"></path>
                        <path d="M28,63.7320509 C26.4210526,57.2679492 18.5263158,54.0358984 13,57.2679492 C14.5789474,63.7320509 22.4736842,66.9641016 28,63.7320509 Z" id="Path" fill="#000000" fill-rule="nonzero"></path>
                        <path d="M53.6671353,25 C55.6045479,18 48.8236038,11 40.1052471,11 C39.1365409,18 44.9487786,25 53.6671353,25 Z" id="Path" fill="#000000" fill-rule="nonzero"></path>
                        <path d="M102.33583,31 C100.593009,23.9411765 105.821473,16 113.66417,16 C115.406991,23.9411765 110.178527,31 102.33583,31 Z" id="Path" fill="#000000" fill-rule="nonzero"></path>
                        <path d="M0,69.665246 C5.14285714,74.8526409 13.7142857,73.9880755 18,67.0715486 C12.8571428,61.8841537 3.42857142,63.6132853 0,69.665246 Z" id="Path" fill="#000000" fill-rule="nonzero"></path>
                        <path d="M29,35.7320508 C26.6,29.2679492 19.4,26.0358984 13,29.2679492 C15.4,35.7320508 22.6,38.9641016 29,35.7320508 Z" id="Path" fill="#000000" fill-rule="nonzero"></path>
                        <path d="M53.2521313,0 C59.861557,3 62.3400917,10.5 57.3830224,15 C50.7735967,12.7499999 49.1212402,5.24999999 53.2521313,0 Z" id="Path" fill="#000000" fill-rule="nonzero"></path>
                        <path d="M43,21.3480966 C43,14.6652383 35.0588235,9.65309465 28,11.3238092 C28,18.8420247 35.9411765,23.8541684 43,21.3480966 Z" id="Path" fill="#000000" fill-rule="nonzero"></path>
                        <path d="M106.31225,9 C99.3126138,9 94.0628866,16.9411764 96.6877499,24 C103.687386,23.1176471 108.937113,16.0588235 106.31225,9 Z" id="Path" fill="#000000" fill-rule="nonzero"></path>
                    </g>
                </g>
                <path d="M224.765677,131 C230.629263,131 235.432893,130.125679 239.176568,128.377038 C242.920242,126.628397 246.460946,124.588315 249.79868,122.256793 C251.783278,121.001359 253.20407,120.866848 254.061056,121.853261 C254.918042,122.839674 255.526953,125.26087 255.887789,129.116848 L255.887789,129.116848 L259,129.116848 C258.819582,125.529891 258.684268,121.113451 258.594059,115.867527 C258.510072,110.983391 258.465182,104.680653 258.459389,96.9593134 L258.458746,95.2201087 L255.346535,95.2201087 C254.715072,101.855978 253.767877,107.169158 252.50495,111.159647 C251.242024,115.150136 248.851485,118.490489 245.333333,121.180707 C243.168317,123.33288 240.574807,124.969429 237.552805,126.090353 C234.530803,127.211277 231.531353,127.771739 228.554455,127.771739 C223.773377,127.771739 219.623762,126.516304 216.105611,124.005435 C212.587459,121.494565 209.723322,118.086957 207.513201,113.782609 C205.30308,109.478261 203.679318,104.568614 202.641914,99.0536685 C201.60451,93.5387228 201.085809,87.7771739 201.085809,81.7690217 C201.085809,75.8505435 201.581958,70.1338315 202.574257,64.6188859 C203.566557,59.1039402 205.122662,54.1494565 207.242574,49.7554348 C209.362486,45.361413 212.136414,41.8865489 215.564356,39.3308424 C218.992299,36.7751359 223.141914,35.4972826 228.013201,35.4972826 C231.260726,35.4972826 234.372937,36.0353261 237.349835,37.111413 C240.326733,38.1875 242.942794,39.8464674 245.19802,42.0883152 C247.543454,43.8817935 249.347635,45.8994565 250.610561,48.1413043 C251.873487,50.3831522 252.865787,52.9612772 253.587459,55.8756793 C254.309131,58.7900815 254.89549,62.3097826 255.346535,66.4347826 L255.346535,66.4347826 L258.458746,66.4347826 L258.458746,66.4347826 L258.459389,64.7512375 C258.465182,57.2803663 258.510072,51.2280969 258.594059,46.5944293 C258.684268,41.6175272 258.819582,37.3804348 259,33.8831522 L259,33.8831522 L255.887789,33.8831522 C255.526953,37.7391304 254.872937,40.1827446 253.925743,41.2139946 C252.978548,42.2452446 251.60286,42.0883152 249.79868,40.7432065 C246.821782,38.4116848 243.416392,36.3716033 239.582508,34.622962 C235.748625,32.8743207 230.854785,32 224.90099,32 C215.519252,32 207.242574,34.107337 200.070957,38.3220109 C192.89934,42.5366848 187.261276,48.4103261 183.156766,55.9429348 C179.052255,63.4755435 177,72.263587 177,82.3070652 C177,92.5298913 178.984598,101.273098 182.953795,108.536685 C186.922992,115.800272 192.493399,121.360054 199.665017,125.216033 C206.836634,129.072011 215.20352,131 224.765677,131 Z M359.389452,130 L383.129817,53.5985915 C384.748479,48.4248826 386.636917,44.6561033 388.795132,42.2922535 C390.953347,39.9284038 393.021636,38.3896714 395,37.6760563 L395,37.6760563 L395,35 C393.651116,35.0892019 392.099899,35.1784038 390.346349,35.2676056 C388.592799,35.3568075 386.68188,35.4014085 384.61359,35.4014085 C381.915822,35.4014085 379.218053,35.3568075 376.520284,35.2676056 C373.822515,35.1784038 370.944895,35.0892019 367.887424,35 L367.887424,35 L367.887424,37.6760563 C371.574375,37.7652582 374.407032,38.6349765 376.385396,40.2852113 C378.363759,41.935446 379.397904,44.6784038 379.48783,48.5140845 C379.577755,52.3497653 378.543611,57.657277 376.385396,64.4366197 L376.385396,64.4366197 L363.551885,104.881866 L345.091278,48.915493 C344.059088,45.7585221 343.623399,43.4176895 343.784211,41.892995 L343.809838,41.6901408 C344.034652,40.1737089 344.933908,39.1478873 346.507606,38.6126761 C348.081305,38.0774648 350.217039,37.7652582 352.914807,37.6760563 L352.914807,37.6760563 L352.914807,35 C350.846518,35.0892019 348.081305,35.1784038 344.619168,35.2676056 C341.157032,35.3568075 337.4476,35.4014085 333.490872,35.4014085 C330.073698,35.4014085 326.634043,35.3568075 323.171907,35.2676056 C319.70977,35.1784038 316.719743,35.0892019 314.201826,35 L314.201826,35 L314.201826,37.6760563 C315.640636,37.7652582 317.012001,38.3004695 318.315923,39.2816901 C319.619844,40.2629108 320.721433,42.1361502 321.62069,44.9014085 L321.62069,44.9014085 L328.544963,65.7044014 L314.826809,105.465023 L295.182556,48.915493 C294.623019,47.2503912 294.258875,45.6733901 294.090126,44.1844897 L294.036004,43.6302817 C293.901116,41.9800469 294.193374,40.6420188 294.912779,39.6161972 C295.632184,38.5903756 296.891143,37.943662 298.689655,37.6760563 L298.689655,37.6760563 L298.689655,35 C296.891143,35.0892019 294.575558,35.1784038 291.742901,35.2676056 C288.910243,35.3568075 285.695402,35.4014085 282.098377,35.4014085 C278.771129,35.4014085 275.26403,35.3568075 271.577079,35.2676056 C267.890128,35.1784038 264.697769,35.0892019 262,35 L262,35 L262,37.6760563 C263.348884,37.7652582 264.810176,38.3896714 266.383874,39.5492958 C267.957573,40.7089202 269.328938,42.9389671 270.497972,46.2394366 L270.497972,46.2394366 L300.712982,130 C301.432387,129.910798 302.196755,129.866197 303.006085,129.866197 L303.006085,129.866197 L307.862069,129.866197 C308.6714,129.866197 309.435767,129.910798 310.155172,130 L310.155172,130 L330.102924,70.38527 L349.947262,130 C350.522786,129.928638 351.127086,129.885822 351.760162,129.871549 L352.240365,129.866197 L352.240365,129.866197 L357.096349,129.866197 C357.90568,129.866197 358.670047,129.910798 359.389452,130 L359.389452,130 Z M472.148968,131 C476.086037,131 479.441495,130.395429 482.215339,129.186288 C484.989184,127.977147 487.584071,125.984303 490,123.207756 L490,123.207756 L488.120944,121.595568 C487.226155,122.580794 486.398476,123.319714 485.637906,123.812327 C484.877335,124.30494 483.915438,124.59603 482.752212,124.685596 C481.052114,124.685596 479.754671,123.969067 478.859882,122.536011 C477.965093,121.102955 477.115044,118.595106 476.309735,115.012465 L476.309735,115.012465 L473.222714,101.174515 C472.059489,95.621422 469.531711,91.456602 465.639381,88.6800554 C461.74705,85.9035088 455.729597,84.1569714 447.587021,83.4404432 L447.754794,83.4561173 L448.325221,83.3900623 C451.357915,83.0262004 454.101287,82.4934025 456.555336,81.7916687 L457.116519,81.6267313 C462.306293,80.0593259 466.399951,77.9545245 469.397493,75.3123269 C472.395034,72.6701293 474.520157,69.8040166 475.772861,66.7139889 C477.025565,63.6239612 477.651917,60.556325 477.651917,57.5110803 C477.651917,50.0771006 474.564897,44.3224838 468.390855,40.2472299 C462.216814,36.171976 452.911013,34.134349 440.473451,34.134349 C438.773353,34.134349 435.910029,34.179132 431.883481,34.2686981 C427.856932,34.3582641 423.696165,34.4030471 419.40118,34.4030471 C415.643068,34.4030471 411.862586,34.3582641 408.059735,34.2686981 C404.256883,34.179132 401.236971,34.089566 399,34 L399,34 L399,36.6869806 C401.773845,36.7765466 403.898968,37.1124192 405.375369,37.6945983 C406.85177,38.2767775 407.836037,39.3515697 408.328171,40.9189751 C408.820305,42.4863804 409.066372,44.9270545 409.066372,48.2409972 L409.066372,48.2409972 L409.066372,114.878116 C409.066372,118.102493 408.820305,120.520776 408.328171,122.132964 C407.836037,123.745152 406.87414,124.819945 405.442478,125.357341 C404.010816,125.894737 401.863324,126.253001 399,126.432133 L399,126.432133 L399,129.119114 C401.236971,128.939982 404.256883,128.828024 408.059735,128.783241 C411.862586,128.738458 415.911504,128.716066 420.20649,128.716066 C423.964602,128.716066 427.677974,128.738458 431.346608,128.783241 C435.015241,128.828024 438.057522,128.939982 440.473451,129.119114 L440.473451,129.119114 L440.473451,126.432133 C437.610128,126.253001 435.462635,125.894737 434.030973,125.357341 C432.599312,124.819945 431.637414,123.745152 431.14528,122.132964 C430.653147,120.520776 430.40708,118.102493 430.40708,114.878116 L430.40708,114.878116 L430.40708,83.9778393 L439.131268,83.9778393 C441.773025,83.9778393 443.866952,84.7293003 445.41305,86.2322222 L445.640855,86.4632964 C447.206735,88.1202678 448.43707,90.3594183 449.331858,93.1807479 C450.226647,96.0020776 450.987217,99.2936288 451.613569,103.055402 L451.613569,103.055402 L454.029499,116.490305 C455.013766,122.043398 457.07178,125.849954 460.20354,127.909972 C463.3353,129.969991 467.317109,131 472.148968,131 Z M430,48.6566265 C430,43.9578313 430.515233,40.8403614 431.545699,39.3042169 C432.576165,37.7680723 434.83871,37 438.333333,37 C444.426523,37 448.727599,38.9653614 451.236559,42.8960843 C453.74552,46.8268072 455,52.3614458 455,59.5 C455,63.6566265 454.484767,67.4292169 453.454301,70.8177711 C452.423835,74.2063253 450.542115,76.9171687 447.80914,78.9503012 C445.076165,80.9834337 441.066308,82 435.77957,82 L435.77957,82 L430,82 L430,48.6566265 Z M582,129 L582,126.323944 C580.740203,126.234742 579.322932,125.588028 577.748186,124.383803 C576.17344,123.179577 574.756168,120.971831 573.496372,117.760563 L573.496372,117.760563 L540.696662,34 C539.256894,34.0892019 537.704644,34.1338028 536.039913,34.1338028 C534.375181,34.1338028 532.822932,34.0892019 531.383164,34 L531.383164,34 L500.608128,112.274648 C498.718433,117.180751 496.783745,120.659624 494.804064,122.711268 C492.824383,124.762911 490.889695,125.967136 489,126.323944 L489,126.323944 L489,129 C490.349782,128.821596 491.902032,128.710094 493.656749,128.665493 C495.411466,128.620892 497.278665,128.598592 499.258345,128.598592 C502.047896,128.598592 504.792453,128.620892 507.492017,128.665493 C510.191582,128.710094 513.026125,128.821596 515.995646,129 L515.995646,129 L515.995646,126.323944 C512.396226,126.14554 509.516691,125.454225 507.357039,124.25 C505.197388,123.045775 504.095065,120.748826 504.050073,117.359155 C504.00508,113.969484 505.24238,108.974178 507.761974,102.373239 L507.761974,102.373239 L511.337772,93.1408451 L540.702286,93.1408451 L548.795356,115.084507 C550.540529,119.495945 550.86841,122.418556 549.778999,123.852339 L549.672714,123.982394 C548.45791,125.365023 545.555878,126.14554 540.966618,126.323944 L540.966618,126.323944 L540.966618,129 C543.12627,128.821596 546.050798,128.710094 549.740203,128.665493 C553.429608,128.620892 557.343977,128.598592 561.483309,128.598592 C565.172714,128.598592 568.839623,128.620892 572.484035,128.665493 C576.128447,128.710094 579.300435,128.821596 582,129 L582,129 Z M540,91 L513,91 L526.828781,54 L540,91 Z" id="CWRA" fill="#FFFFFF" fill-rule="nonzero"></path>
            </g>
        </g>
    </g>
</svg>