<svg data-v-a47b97f8="" version="1.0" xmlns="http://www.w3.org/2000/svg"
xmlns:xlink="http://www.w3.org/1999/xlink" width="100%" height="100%" viewBox="0
0 340.000000 250.000000" preserveAspectRatio="xMidYMid meet"
color-interpolation-filters="sRGB" style="margin: auto;"><rect
data-v-a47b97f8="" x="0" y="0" width="100%" height="100%" fill="#c822b0"
fill-opacity="1" class="background"></rect> <rect data-v-a47b97f8="" x="0" y="0"
width="100%" height="100%" fill="url(#watermark)" fill-opacity="1"
class="watermarklayer"></rect> <g data-v-a47b97f8="" fill="#feffff"
class="bordersvg b-d1"
transform="translate(71.32691192626953,70.32793426513672)"><polyline
stroke="#feffff" stroke-width="3" fill-opacity="0" fill="#c822b0"
points="98.67308807373047,20 98.67308807373047,10 197.34617614746094,0
197.34617614746094,109.34413146972656 98.67308807373047,99.34413146972656
98.67308807373047,89.34413146972656"></polyline> <g
transform="translate(0,20)"><g><rect data-gra="graph-name-bg" stroke-width="2"
class="i-icon-bg" x="0" y="0" width="197.34617614746094"
height="69.34413528442383" fill-opacity="0"></rect> <!----> <!----> </g> <g
transform="translate(10,3)"><g data-gra="path-name" fill-rule=""
class="tp-name"><g transform="scale(1)"><g><path
d="M36.11-19.84L36.11-19.84Q36.20-19.12 36.28-18.39Q36.35-17.67
36.35-16.94L36.35-16.94Q36.35-13.32 34.97-10.11Q33.60-6.90 31.21-4.51Q28.82-2.12
25.61-0.75Q22.40 0.63 18.78 0.63L18.78 0.63Q15.16 0.63 11.95-0.75Q8.74-2.12
6.35-4.51Q3.96-6.90 2.58-10.11Q1.21-13.32 1.21-16.94L1.21-16.94Q1.21-20.56
2.58-23.77Q3.96-26.98 6.35-29.37Q8.74-31.76 11.95-33.14Q15.16-34.51
18.78-34.51L18.78-34.51Q22.45-34.51 25.63-33.14Q28.82-31.76
31.18-29.35L31.18-29.35L27.13-25.25Q25.44-26.93 23.29-27.83Q21.14-28.72
18.78-28.72L18.78-28.72Q16.41-28.72 14.29-27.83Q12.16-26.93
10.47-25.25L10.47-25.25Q8.79-23.56 7.89-21.43Q7.00-19.31
7.00-16.94L7.00-16.94Q7.00-14.58 7.89-12.43Q8.79-10.28
10.47-8.59L10.47-8.59Q12.16-6.90 14.29-6.03Q16.41-5.16
18.78-5.16L18.78-5.16Q21.14-5.16 23.29-6.03Q25.44-6.90
27.13-8.59L27.13-8.59Q29.40-10.96
30.22-14.05L30.22-14.05L14.58-14.05L16.03-19.84L36.11-19.84ZM61.98-28.00L61.98-28.00L45.04-28.00L45.04-19.79L57.63-19.79L59.08-14.00L45.04-14.00L45.04-5.79L61.98-5.79L61.98
0L39.24
0L39.24-33.79L61.98-33.79L61.98-28.00ZM84.96-33.84L84.96-33.84L90.75-33.84L90.75-0.05L84.47-0.05L70.91-23.17L70.91-0.05L65.12-0.05L65.12-33.84L71.39-33.84L84.96-10.72L84.96-33.84ZM108.13-33.79L108.13-33.79Q111.60-33.79
114.69-32.46Q117.78-31.13 120.07-28.84Q122.37-26.55 123.69-23.46Q125.02-20.37
125.02-16.89L125.02-16.89Q125.02-13.42 123.69-10.33Q122.37-7.24
120.07-4.95Q117.78-2.65 114.69-1.33Q111.60 0 108.13 0L108.13 0L102.14
0L104.51-5.79L108.13-5.79Q110.35-5.79 112.37-6.64Q114.40-7.48
115.99-9.03L115.99-9.03Q117.54-10.62 118.38-12.62Q119.23-14.63
119.23-16.89L119.23-16.89Q119.23-19.12 118.38-21.14Q117.54-23.17
115.99-24.76L115.99-24.76Q114.40-26.31 112.37-27.15Q110.35-28.00
108.13-28.00L108.13-28.00L99.92-28.00L99.92-14.00L99.92-5.79L99.92 0L94.13
0L94.13-33.79L108.13-33.79ZM150.65-28.00L150.65-28.00L133.71-28.00L133.71-19.79L146.31-19.79L147.76-14.00L133.71-14.00L133.71-5.79L150.65-5.79L150.65
0L127.92
0L127.92-33.79L150.65-33.79L150.65-28.00ZM178.55-21.67L178.55-21.67Q178.55-19.84
178.05-18.17Q177.54-16.51 176.65-15.11Q175.75-13.71 174.47-12.57Q173.19-11.44
171.65-10.72L171.65-10.72L178.55 0L171.65
0L165.52-9.51L161.56-9.51L163.93-15.30L166.44-15.30Q169.04-15.30
170.93-17.18L170.93-17.18Q171.79-18.10 172.28-19.26Q172.76-20.42
172.76-21.67L172.76-21.67Q172.76-22.93 172.28-24.09Q171.79-25.25
170.93-26.11L170.93-26.11Q169.04-28.00
166.44-28.00L166.44-28.00L159.58-28.00L159.58-24.81L159.58-15.30L159.58-9.51L159.58
0L153.79 0L153.79-9.51L153.79-24.81L153.79-33.79L166.44-33.79Q168.95-33.79
171.14-32.82Q173.34-31.86 174.98-30.22Q176.62-28.58 177.59-26.38Q178.55-24.18
178.55-21.67Z" transform="translate(-1.2100000381469727, 34.51327433628318)
skewX(0)"></path></g> <!----> <!----> <!----> <!----> <!----> <!----> <g
data-gra="path-name-1" fill="#feffff"
transform="translate(0,38.13999938964844)"><g transform="scale(0.99198)"><path
d="M13.58-20.77L13.58-20.77Q11.87-20.77 10.33-20.13Q8.80-19.48
7.58-18.26L7.58-18.26Q6.35-17.04 5.71-15.50Q5.06-13.96
5.06-12.25L5.06-12.25Q5.06-10.54 5.71-8.99Q6.35-7.44
7.58-6.21L7.58-6.21Q8.80-4.99 10.33-4.36Q11.87-3.74
13.58-3.74L13.58-3.74Q15.29-3.74 16.84-4.36Q18.40-4.99
19.62-6.21L19.62-6.21Q20.84-7.44 21.47-8.99Q22.10-10.54
22.10-12.25L22.10-12.25Q22.10-13.96 21.47-15.50Q20.84-17.04
19.62-18.26L19.62-18.26Q18.40-19.48 16.84-20.13Q15.29-20.77
13.58-20.77ZM13.58-24.96L13.58-24.96Q16.20-24.96 18.52-23.97Q20.84-22.97
22.57-21.24Q24.30-19.52 25.29-17.19Q26.29-14.87
26.29-12.25L26.29-12.25Q26.29-9.64 25.29-7.31Q24.30-4.99 22.57-3.26Q20.84-1.54
18.52-0.54Q16.20 0.45 13.58 0.45L13.58 0.45Q10.96 0.45 8.64-0.54Q6.32-1.54
4.59-3.26Q2.86-4.99 1.87-7.31Q0.87-9.64 0.87-12.25L0.87-12.25Q0.87-14.87
1.87-17.19Q2.86-19.52 4.59-21.24Q6.32-22.97 8.64-23.97Q10.96-24.96
13.58-24.96ZM37.49-24.44L37.49-24.44Q39.31-24.44 40.92-23.74Q42.52-23.04
43.71-21.85Q44.90-20.67 45.59-19.08Q46.29-17.49
46.29-15.67L46.29-15.67Q46.29-13.86 45.59-12.25Q44.90-10.65
43.71-9.46Q42.52-8.27 40.92-7.58Q39.31-6.88
37.49-6.88L37.49-6.88L34.00-6.88L35.71-11.07L37.49-11.07Q39.38-11.07
40.74-12.43L40.74-12.43Q42.10-13.79 42.10-15.67L42.10-15.67Q42.10-17.60
40.74-18.89L40.74-18.89Q39.38-20.25 37.49-20.25L37.49-20.25L32.57-20.25L32.57
0L28.38
0L28.38-24.44L37.49-24.44ZM64.83-20.25L64.83-20.25L52.58-20.25L52.58-14.31L61.69-14.31L62.73-10.12L52.58-10.12L52.58-4.19L64.83-4.19L64.83
0L48.39
0L48.39-24.44L64.83-24.44L64.83-20.25ZM81.45-24.47L81.45-24.47L85.64-24.47L85.64-0.03L81.10-0.03L71.29-16.76L71.29-0.03L67.10-0.03L67.10-24.47L71.64-24.47L81.45-7.75L81.45-24.47ZM105.19-24.44L105.19-24.44Q107.70-24.44
109.93-23.48Q112.17-22.52 113.83-20.86Q115.48-19.20 116.44-16.97Q117.40-14.73
117.40-12.22L117.40-12.22Q117.40-9.71 116.44-7.47Q115.48-5.24
113.83-3.58Q112.17-1.92 109.93-0.96Q107.70 0 105.19 0L105.19 0L100.86
0L102.57-4.19L105.19-4.19Q106.79-4.19 108.26-4.80Q109.72-5.41
110.88-6.53L110.88-6.53Q111.99-7.68 112.60-9.13Q113.22-10.58
113.22-12.22L113.22-12.22Q113.22-13.82 112.60-15.29Q111.99-16.76
110.88-17.91L110.88-17.91Q109.72-19.03 108.26-19.64Q106.79-20.25
105.19-20.25L105.19-20.25L99.25-20.25L99.25-10.12L99.25-4.19L99.25 0L95.06
0L95.06-24.44L105.19-24.44ZM131.72-24.44L131.72-24.44L142.75 0L138.14
0L136.26-4.19L136.26-4.19L134.37-8.38L134.37-8.38L129.41-19.34L124.46-8.38L130.81-8.38L132.70-4.19L122.57-4.19L120.69
0L116.08
0L127.11-24.44L131.72-24.44ZM157.10-24.44L157.10-24.44L157.10-20.25L149.94-20.25L149.94
0L145.75
0L145.75-20.25L138.56-20.25L138.56-24.44L145.75-24.44L149.94-24.44L157.10-24.44ZM168.62-24.44L168.62-24.44L179.65
0L175.04
0L173.16-4.19L173.16-4.19L171.27-8.38L171.27-8.38L166.31-19.34L161.36-8.38L167.71-8.38L169.60-4.19L159.47-4.19L157.59
0L152.98 0L164.01-24.44L168.62-24.44Z" transform="translate(-0.8700000047683716,
24.961210240496506) skewX(0)"></path></g></g></g></g> <!----></g></g></g><defs
v-gra="od"></defs></svg>
