<svg width="532" height="170" viewBox="0 0 532 170" fill="none" xmlns="http://www.w3.org/2000/svg">
<path d="M484.804 105.724L504.689 34.667H531.468L498.414 129.409C492.051 147.674 487.013 158.987 483.301 163.347C479.589 167.766 472.166 169.975 461.03 169.975C458.791 169.975 456.994 169.946 455.639 169.887C454.284 169.887 452.251 169.798 449.541 169.622V149.471L452.722 149.648C455.197 149.766 457.554 149.677 459.792 149.383C462.031 149.088 463.917 148.411 465.449 147.35C466.922 146.348 468.277 144.257 469.514 141.075C470.81 137.894 471.341 135.949 471.105 135.242L435.753 34.667H463.77L484.804 105.724Z" fill="white"/>
<path d="M427.557 57.9106C417.423 57.9106 410.618 61.2101 407.142 67.8091C405.197 71.521 404.225 77.2362 404.225 84.9546V131H378.86V34.667H402.899V51.459C406.788 45.0368 410.176 40.6473 413.063 38.2905C417.777 34.3429 423.904 32.3691 431.446 32.3691C431.917 32.3691 432.3 32.3986 432.595 32.4575C432.948 32.4575 433.685 32.487 434.804 32.5459V58.3525C433.213 58.1758 431.799 58.0579 430.562 57.999C429.325 57.9401 428.323 57.9106 427.557 57.9106Z" fill="white"/>
<path d="M370.831 102.719C370.183 108.434 367.208 114.237 361.905 120.129C353.656 129.498 342.108 134.182 327.26 134.182C315.005 134.182 304.193 130.234 294.825 122.339C285.457 114.444 280.773 101.599 280.773 83.8057C280.773 67.1315 284.986 54.346 293.411 45.4492C301.896 36.5524 312.884 32.104 326.376 32.104C334.389 32.104 341.607 33.6064 348.029 36.6113C354.451 39.6162 359.754 44.3592 363.938 50.8403C367.708 56.5555 370.153 63.1839 371.273 70.7256C371.921 75.1445 372.186 81.5078 372.068 89.8154H306.138C306.491 99.4782 309.526 106.254 315.241 110.143C318.717 112.558 322.9 113.766 327.791 113.766C332.975 113.766 337.188 112.293 340.429 109.347C342.196 107.756 343.758 105.547 345.113 102.719H370.831ZM345.908 73.2002C345.496 66.5423 343.463 61.5047 339.81 58.0874C336.216 54.6112 331.738 52.873 326.376 52.873C320.543 52.873 316.007 54.6995 312.766 58.3525C309.584 62.0055 307.581 66.9548 306.756 73.2002H345.908Z" fill="white"/>
<path d="M233.062 53.3149C224.518 53.3149 218.656 56.9385 215.474 64.1855C213.824 68.0153 213 72.9056 213 78.8564V131H187.9V34.8438H212.204V48.896C215.445 43.9468 218.508 40.3822 221.396 38.2021C226.58 34.3135 233.15 32.3691 241.104 32.3691C251.061 32.3691 259.192 34.991 265.497 40.2349C271.86 45.4198 275.042 54.0514 275.042 66.1299V131H249.235V72.4048C249.235 67.3377 248.557 63.4491 247.202 60.7388C244.728 55.7896 240.014 53.3149 233.062 53.3149Z" fill="white"/>
<path d="M179.429 102.719C178.781 108.434 175.805 114.237 170.502 120.129C162.254 129.498 150.706 134.182 135.858 134.182C123.603 134.182 112.791 130.234 103.423 122.339C94.0547 114.444 89.3706 101.599 89.3706 83.8057C89.3706 67.1315 93.5833 54.346 102.009 45.4492C110.493 36.5524 121.482 32.104 134.974 32.104C142.987 32.104 150.205 33.6064 156.627 36.6113C163.049 39.6162 168.352 44.3592 172.535 50.8403C176.306 56.5555 178.751 63.1839 179.871 70.7256C180.519 75.1445 180.784 81.5078 180.666 89.8154H114.735C115.089 99.4782 118.123 106.254 123.838 110.143C127.315 112.558 131.498 113.766 136.388 113.766C141.573 113.766 145.786 112.293 149.026 109.347C150.794 107.756 152.355 105.547 153.71 102.719H179.429ZM154.506 73.2002C154.093 66.5423 152.061 61.5047 148.408 58.0874C144.814 54.6112 140.336 52.873 134.974 52.873C129.141 52.873 124.604 54.6995 121.364 58.3525C118.182 62.0055 116.179 66.9548 115.354 73.2002H154.506Z" fill="white"/>
<path d="M106.441 0.729492V23.7964H67.4658V131H40.0684V23.7964H0.916504V0.729492H106.441Z" fill="white"/>
</svg>
