<?xml version="1.0" encoding="UTF-8"?>
<svg width="60px" height="34px" viewBox="0 0 60 34" version="1.1" xmlns="http://www.w3.org/2000/svg" xmlns:xlink="http://www.w3.org/1999/xlink">
    <title>Group</title>
    <g id="Logo-(Jan-2022)" stroke="none" stroke-width="1" fill="none" fill-rule="evenodd">
        <g id="logo---black-bg" transform="translate(-20.000000, -20.000000)" fill-rule="nonzero">
            <g id="Group" transform="translate(20.978504, 20.684687)">
                <polyline id="Path" stroke="#FEFFFF" stroke-width="0.882352941" fill-opacity="0" fill="#C822B0" points="29.0214965 5.88235294 29.0214965 2.94117647 58.042993 0 58.042993 32.1600387 29.0214965 29.2188622 29.0214965 26.2776857"></polyline>
                <g transform="translate(0.000000, 5.882353)" fill="#FEFFFF">
                    <g fill-opacity="0" id="Rectangle">
                        <rect x="0" y="0" width="58.042993" height="20.3953339"></rect>
                    </g>
                    <g transform="translate(2.941176, 0.883316)" id="Shape">
                        <g>
                            <path d="M10.2647059,4.31470588 L10.2647059,4.31470588 C10.2823529,4.45588235 10.2990196,4.59803922 10.3147059,4.74117647 C10.3284314,4.88235294 10.3352941,5.0245098 10.3352941,5.16764706 L10.3352941,5.16764706 C10.3352941,5.87745098 10.2,6.54705882 9.92941176,7.17647059 C9.66078431,7.80588235 9.29215686,8.35490196 8.82352941,8.82352941 C8.35490196,9.29215686 7.80588235,9.66078431 7.17647059,9.92941176 C6.54705882,10.2 5.87745098,10.3352941 5.16764706,10.3352941 L5.16764706,10.3352941 C4.45784314,10.3352941 3.78823529,10.2 3.15882353,9.92941176 C2.52941176,9.66078431 1.98039216,9.29215686 1.51176471,8.82352941 C1.04313725,8.35490196 0.673529412,7.80588235 0.402941176,7.17647059 C0.134313725,6.54705882 0,5.87745098 0,5.16764706 L0,5.16764706 C0,4.45784314 0.134313725,3.78823529 0.402941176,3.15882353 C0.673529412,2.52941176 1.04313725,1.98039216 1.51176471,1.51176471 C1.98039216,1.04313725 2.52941176,0.673529412 3.15882353,0.402941176 C3.78823529,0.134313725 4.45784314,0 5.16764706,0 L5.16764706,0 C5.8872549,0 6.55882353,0.134313725 7.18235294,0.402941176 C7.80784314,0.673529412 8.35196078,1.04509804 8.81470588,1.51764706 L8.81470588,1.51764706 L7.62352941,2.72352941 C7.29215686,2.39411765 6.91568627,2.14117647 6.49411765,1.96470588 C6.07254902,1.79019608 5.63039216,1.70294118 5.16764706,1.70294118 L5.16764706,1.70294118 C4.70294118,1.70294118 4.2627451,1.79019608 3.84705882,1.96470588 C3.42941176,2.14117647 3.05490196,2.39411765 2.72352941,2.72352941 L2.72352941,2.72352941 C2.39411765,3.05490196 2.14117647,3.42941176 1.96470588,3.84705882 C1.79019608,4.2627451 1.70294118,4.70294118 1.70294118,5.16764706 L1.70294118,5.16764706 C1.70294118,5.63039216 1.79019608,6.07254902 1.96470588,6.49411765 C2.14117647,6.91568627 2.39411765,7.29215686 2.72352941,7.62352941 L2.72352941,7.62352941 C3.05490196,7.95490196 3.42941176,8.20588235 3.84705882,8.37647059 C4.2627451,8.54705882 4.70294118,8.63235294 5.16764706,8.63235294 L5.16764706,8.63235294 C5.63039216,8.63235294 6.07254902,8.54705882 6.49411765,8.37647059 C6.91568627,8.20588235 7.29215686,7.95490196 7.62352941,7.62352941 L7.62352941,7.62352941 C8.06862745,7.15882353 8.37156863,6.62352941 8.53235294,6.01764706 L8.53235294,6.01764706 L3.93235294,6.01764706 L4.35882353,4.31470588 L10.2647059,4.31470588 Z M17.8735294,1.91470588 L17.8735294,1.91470588 L12.8911765,1.91470588 L12.8911765,4.32941176 L16.5941176,4.32941176 L17.0205882,6.03235294 L12.8911765,6.03235294 L12.8911765,8.44705882 L17.8735294,8.44705882 L17.8735294,10.15 L11.1852941,10.15 L11.1852941,0.211764706 L17.8735294,0.211764706 L17.8735294,1.91470588 Z M24.6323529,0.197058824 L24.6323529,0.197058824 L26.3352941,0.197058824 L26.3352941,10.1352941 L24.4882353,10.1352941 L20.5,3.33529412 L20.5,10.1352941 L18.7970588,10.1352941 L18.7970588,0.197058824 L20.6411765,0.197058824 L24.6323529,6.99705882 L24.6323529,0.197058824 Z M31.4470588,0.211764706 L31.4470588,0.211764706 C32.127451,0.211764706 32.7705882,0.342156863 33.3764706,0.602941176 C33.9823529,0.86372549 34.5098039,1.21862745 34.9588235,1.66764706 C35.4098039,2.11666667 35.7647059,2.64411765 36.0235294,3.25 C36.2843137,3.85588235 36.4147059,4.5 36.4147059,5.18235294 L36.4147059,5.18235294 C36.4147059,5.8627451 36.2843137,6.50588235 36.0235294,7.11176471 C35.7647059,7.71764706 35.4098039,8.24509804 34.9588235,8.69411765 C34.5098039,9.14509804 33.9823529,9.5 33.3764706,9.75882353 C32.7705882,10.0196078 32.127451,10.15 31.4470588,10.15 L31.4470588,10.15 L29.6852941,10.15 L30.3823529,8.44705882 L31.4470588,8.44705882 C31.8823529,8.44705882 32.2980392,8.36372549 32.6941176,8.19705882 C33.0921569,8.03235294 33.4470588,7.79803922 33.7588235,7.49411765 L33.7588235,7.49411765 C34.0627451,7.18235294 34.2970588,6.83039216 34.4617647,6.43823529 C34.6284314,6.04411765 34.7117647,5.6254902 34.7117647,5.18235294 L34.7117647,5.18235294 C34.7117647,4.74509804 34.6284314,4.32843137 34.4617647,3.93235294 C34.2970588,3.53431373 34.0627451,3.17941176 33.7588235,2.86764706 L33.7588235,2.86764706 C33.4470588,2.56372549 33.0921569,2.32941176 32.6941176,2.16470588 C32.2980392,1.99803922 31.8823529,1.91470588 31.4470588,1.91470588 L31.4470588,1.91470588 L29.0323529,1.91470588 L29.0323529,6.03235294 L29.0323529,8.44705882 L29.0323529,10.15 L27.3294118,10.15 L27.3294118,0.211764706 L31.4470588,0.211764706 Z M43.9529412,1.91470588 L43.9529412,1.91470588 L38.9705882,1.91470588 L38.9705882,4.32941176 L42.6764706,4.32941176 L43.1029412,6.03235294 L38.9705882,6.03235294 L38.9705882,8.44705882 L43.9529412,8.44705882 L43.9529412,10.15 L37.2676471,10.15 L37.2676471,0.211764706 L43.9529412,0.211764706 L43.9529412,1.91470588 Z M52.1588235,3.77647059 L52.1588235,3.77647059 C52.1588235,4.13529412 52.1098039,4.47843137 52.0117647,4.80588235 C51.9117647,5.13137255 51.7745098,5.43137255 51.6,5.70588235 C51.4235294,5.98039216 51.2098039,6.22941176 50.9588235,6.45294118 C50.7078431,6.6745098 50.4313725,6.85588235 50.1294118,6.99705882 L50.1294118,6.99705882 L52.1588235,10.15 L50.1294118,10.15 L48.3264706,7.35294118 L47.1617647,7.35294118 L47.8588235,5.65 L48.5970588,5.65 C49.1068627,5.65 49.5470588,5.46568627 49.9176471,5.09705882 L49.9176471,5.09705882 C50.0862745,4.91666667 50.2186275,4.7127451 50.3147059,4.48529412 C50.4088235,4.25784314 50.4558824,4.02156863 50.4558824,3.77647059 L50.4558824,3.77647059 C50.4558824,3.52941176 50.4088235,3.29215686 50.3147059,3.06470588 C50.2186275,2.8372549 50.0862745,2.63921569 49.9176471,2.47058824 L49.9176471,2.47058824 C49.5470588,2.1 49.1068627,1.91470588 48.5970588,1.91470588 L48.5970588,1.91470588 L46.5794118,1.91470588 L46.5794118,2.85294118 L46.5794118,5.65 L46.5794118,7.35294118 L46.5794118,10.15 L44.8764706,10.15 L44.8764706,7.35294118 L44.8764706,2.85294118 L44.8764706,0.211764706 L48.5970588,0.211764706 C49.0892157,0.211764706 49.55,0.306862745 49.9794118,0.497058824 C50.4107843,0.685294118 50.7872549,0.940196078 51.1088235,1.26176471 C51.4303922,1.58333333 51.6862745,1.95980392 51.8764706,2.39117647 C52.0647059,2.82254902 52.1588235,3.28431373 52.1588235,3.77647059 Z"></path>
                        </g>
                        <g transform="translate(0.000000, 11.217037)">
                            <g transform="translate(0.000000, 0.000000)">
                                <path d="M3.70825465,1.22246947 L3.70825465,1.22246947 C3.37564959,1.22246947 3.05957753,1.28471135 2.76003847,1.40919512 C2.46244447,1.53562394 2.19499888,1.71748694 1.95770171,1.95478412 L1.95770171,1.95478412 C1.71845947,2.19208129 1.53659647,2.46049941 1.41211271,2.76003847 C1.28568388,3.05957753 1.22246947,3.37564959 1.22246947,3.70825465 L1.22246947,3.70825465 C1.22246947,4.04085971 1.28568388,4.35790429 1.41211271,4.65938841 C1.53659647,4.96087253 1.71845947,5.23123571 1.95770171,5.47047794 L1.95770171,5.47047794 C2.19499888,5.70777512 2.46244447,5.88769306 2.76003847,6.01023176 C3.05957753,6.13082541 3.37564959,6.19112224 3.70825465,6.19112224 L3.70825465,6.19112224 C4.04085971,6.19112224 4.35790429,6.13082541 4.65938841,6.01023176 C4.96281759,5.88769306 5.23318076,5.70777512 5.47047794,5.47047794 L5.47047794,5.47047794 C5.70777512,5.23123571 5.88769306,4.96087253 6.01023176,4.65938841 C6.13277047,4.35790429 6.19403982,4.04085971 6.19403982,3.70825465 L6.19403982,3.70825465 C6.19403982,3.37564959 6.13277047,3.05957753 6.01023176,2.76003847 C5.88769306,2.46049941 5.70777512,2.19208129 5.47047794,1.95478412 L5.47047794,1.95478412 C5.23318076,1.71748694 4.96281759,1.53562394 4.65938841,1.40919512 C4.35790429,1.28471135 4.04085971,1.22246947 3.70825465,1.22246947 Z M3.70825465,0 L3.70825465,0 C4.21786006,0 4.69828959,0.0962804118 5.14954324,0.288841235 C5.60079688,0.483347118 5.99467129,0.748847647 6.33116647,1.08534282 C6.66766165,1.41989294 6.93218965,1.81376735 7.12475047,2.26696606 C7.31925635,2.71821971 7.41650929,3.19864924 7.41650929,3.70825465 L7.41650929,3.70825465 C7.41650929,4.215915 7.31925635,4.69634453 7.12475047,5.14954324 C6.93218965,5.60079688 6.66766165,5.99467129 6.33116647,6.33116647 C5.99467129,6.66571659 5.60079688,6.93024459 5.14954324,7.12475047 C4.69828959,7.31731129 4.21786006,7.41359171 3.70825465,7.41359171 L3.70825465,7.41359171 C3.19864924,7.41359171 2.71821971,7.31731129 2.26696606,7.12475047 C1.81571241,6.93024459 1.421838,6.66571659 1.08534282,6.33116647 C0.748847647,5.99467129 0.484319647,5.60079688 0.291758824,5.14954324 C0.0972529412,4.69634453 -1.32806119e-15,4.215915 -1.32806119e-15,3.70825465 L-1.32806119e-15,3.70825465 C-1.32806119e-15,3.19864924 0.0972529412,2.71821971 0.291758824,2.26696606 C0.484319647,1.81376735 0.748847647,1.41989294 1.08534282,1.08534282 C1.421838,0.748847647 1.81571241,0.483347118 2.26696606,0.288841235 C2.71821971,0.0962804118 3.19864924,0 3.70825465,0 Z M10.6842081,0.151714588 L10.6842081,0.151714588 C11.0382088,0.151714588 11.3717864,0.219791647 11.6849409,0.355945765 C11.9961503,0.492099882 12.267486,0.675907941 12.498948,0.907369941 C12.73041,1.13688688 12.9132455,1.40627753 13.0474546,1.71554188 C13.1836087,2.02480624 13.2516858,2.35643876 13.2516858,2.71043947 L13.2516858,2.71043947 C13.2516858,3.06249512 13.1836087,3.39510018 13.0474546,3.70825465 C12.9132455,4.01946406 12.73041,4.29079976 12.498948,4.52226176 C12.267486,4.75372376 11.9961503,4.93655929 11.6849409,5.07076835 C11.3717864,5.20692247 11.0382088,5.27499953 10.6842081,5.27499953 L10.6842081,5.27499953 L9.66596982,5.27499953 L10.1648774,4.05253006 L10.6842081,4.05253006 C11.0518242,4.05253006 11.3678963,3.92026606 11.6324243,3.65573806 L11.6324243,3.65573806 C11.8969523,3.39121006 12.0292163,3.07611053 12.0292163,2.71043947 L12.0292163,2.71043947 C12.0292163,2.33504312 11.8969523,2.02188865 11.6324243,1.77097606 L11.6324243,1.77097606 C11.3678963,1.50644806 11.0518242,1.37418406 10.6842081,1.37418406 L10.6842081,1.37418406 L9.24875471,1.37418406 L9.24875471,7.28230024 L8.02628524,7.28230024 L8.02628524,0.151714588 L10.6842081,0.151714588 Z M18.6608944,1.37418406 L18.6608944,1.37418406 L15.0868488,1.37418406 L15.0868488,3.10723147 L17.7447716,3.10723147 L18.0482008,4.32970094 L15.0868488,4.32970094 L15.0868488,6.05983076 L18.6608944,6.05983076 L18.6608944,7.28230024 L13.8643793,7.28230024 L13.8643793,0.151714588 L18.6608944,0.151714588 L18.6608944,1.37418406 Z M23.509926,0.142961824 L23.509926,0.142961824 L24.7323955,0.142961824 L24.7323955,7.27354747 L23.4078104,7.27354747 L20.5456564,2.39242235 L20.5456564,7.27354747 L19.3231869,7.27354747 L19.3231869,0.142961824 L20.6477719,0.142961824 L23.509926,5.02116935 L23.509926,0.142961824 Z M30.4362805,0.151714588 L30.4362805,0.151714588 C30.9244902,0.151714588 31.3854692,0.245077412 31.8192173,0.431803059 C32.2549105,0.618528706 32.6341969,0.873331412 32.9570767,1.19621118 C33.2780114,1.51909094 33.5318416,1.89740488 33.7185672,2.331153 C33.9052929,2.76684618 33.9986557,3.22879765 33.9986557,3.71700741 L33.9986557,3.71700741 C33.9986557,4.20521718 33.9052929,4.66716865 33.7185672,5.10286182 C33.5318416,5.53660994 33.2780114,5.91492388 32.9570767,6.23780365 C32.6341969,6.56068341 32.2549105,6.81548612 31.8192173,7.00221176 C31.3854692,7.18893741 30.9244902,7.28230024 30.4362805,7.28230024 L30.4362805,7.28230024 L29.1729648,7.28230024 L29.6718724,6.05983076 L30.4362805,6.05983076 C30.7474899,6.05983076 31.0460564,6.00050647 31.3319801,5.88185788 C31.6159586,5.76320929 31.8707614,5.59496171 32.0963882,5.37711512 L32.0963882,5.37711512 C32.3122897,5.15343335 32.4795648,4.90057571 32.5982134,4.61854218 C32.718807,4.33650865 32.7791038,4.03599706 32.7791038,3.71700741 L32.7791038,3.71700741 C32.7791038,3.405798 32.718807,3.10723147 32.5982134,2.82130782 C32.4795648,2.53538418 32.3122897,2.28058147 32.0963882,2.05689971 L32.0963882,2.05689971 C31.8707614,1.83905312 31.6159586,1.67080553 31.3319801,1.55215694 C31.0460564,1.43350835 30.7474899,1.37418406 30.4362805,1.37418406 L30.4362805,1.37418406 L28.7032331,1.37418406 L28.7032331,4.32970094 L28.7032331,6.05983076 L28.7032331,7.28230024 L27.4807636,7.28230024 L27.4807636,0.151714588 L30.4362805,0.151714588 Z M38.1766421,0.151714588 L38.1766421,0.151714588 L41.3947419,7.28230024 L40.0497337,7.28230024 L39.5012271,6.05983076 L39.5012271,6.05983076 L38.9498029,4.83736129 L38.9498029,4.83736129 L37.5026792,1.63968459 L36.058473,4.83736129 L37.9111415,4.83736129 L38.4625657,6.05983076 L35.5070488,6.05983076 L34.9585422,7.28230024 L33.6135341,7.28230024 L36.8316339,0.151714588 L38.1766421,0.151714588 Z M45.581481,0.151714588 L45.581481,0.151714588 L45.581481,1.37418406 L43.4924878,1.37418406 L43.4924878,7.28230024 L42.2700184,7.28230024 L42.2700184,1.37418406 L40.1722724,1.37418406 L40.1722724,0.151714588 L42.2700184,0.151714588 L43.4924878,0.151714588 L45.581481,0.151714588 Z M48.9425426,0.151714588 L48.9425426,0.151714588 L52.1606425,7.28230024 L50.8156343,7.28230024 L50.2671277,6.05983076 L50.2671277,6.05983076 L49.7157035,4.83736129 L49.7157035,4.83736129 L48.2685798,1.63968459 L46.8243736,4.83736129 L48.6770421,4.83736129 L49.2284663,6.05983076 L46.2729494,6.05983076 L45.7244428,7.28230024 L44.3794346,7.28230024 L47.5975345,0.151714588 L48.9425426,0.151714588 Z"></path>
                            </g>
                        </g>
                    </g>
                </g>
            </g>
        </g>
    </g>
</svg>