<?xml version="1.0" standalone="no"?>
<!DOCTYPE svg PUBLIC "-//W3C//DTD SVG 20010904//EN"
 "http://www.w3.org/TR/2001/REC-SVG-20010904/DTD/svg10.dtd">
<svg version="1.0" xmlns="http://www.w3.org/2000/svg"
 width="1000.000000pt" height="1000.000000pt" viewBox="0 0 1000.000000 1000.000000"
 preserveAspectRatio="xMidYMid meet">
<metadata>
Created by potrace 1.14, written by Peter Selinger 2001-2017
</metadata>
<g transform="translate(0.000000,1000.000000) scale(0.100000,-0.100000)"
fill="#000000" stroke="none">
<path d="M4739 9996 c-2 -2 -58 -7 -123 -10 -66 -4 -122 -9 -125 -11 -4 -1
-37 -6 -76 -9 -38 -3 -79 -8 -90 -10 -11 -2 -42 -7 -70 -10 -79 -11 -106 -16
-160 -26 -27 -5 -63 -12 -80 -15 -69 -12 -98 -18 -261 -60 -254 -65 -532 -160
-739 -253 -234 -105 -543 -271 -712 -382 -42 -28 -77 -50 -79 -50 -4 0 -242
-170 -266 -189 -298 -243 -316 -259 -503 -446 -418 -418 -757 -908 -1005
-1450 -18 -38 -43 -93 -56 -122 -13 -28 -24 -55 -24 -58 0 -4 -7 -21 -15 -38
-48 -104 -171 -474 -201 -609 -2 -10 -6 -26 -8 -36 -2 -9 -9 -35 -14 -57 -17
-67 -61 -287 -67 -335 -3 -25 -7 -56 -10 -70 -7 -38 -13 -79 -20 -150 -4 -36
-9 -73 -10 -82 -26 -139 -26 -828 0 -1033 2 -16 6 -52 9 -80 12 -101 21 -172
31 -226 2 -9 6 -32 9 -50 78 -486 286 -1076 539 -1529 107 -191 195 -332 320
-510 45 -63 84 -117 87 -120 3 -3 37 -45 75 -94 202 -261 534 -589 820 -812
331 -257 648 -446 1080 -644 79 -36 288 -120 300 -120 4 0 21 -6 38 -14 100
-46 525 -165 687 -192 14 -2 36 -7 50 -10 13 -3 40 -7 60 -10 19 -2 60 -9 90
-14 63 -11 113 -18 190 -26 30 -3 73 -7 95 -10 237 -26 754 -26 1000 1 159 17
162 17 285 36 326 49 696 149 1000 269 196 78 523 232 648 305 10 6 55 32 101
59 601 348 1150 854 1550 1430 54 77 110 161 125 186 15 25 41 68 58 95 294
475 525 1066 632 1614 37 189 43 230 61 391 4 30 8 66 10 80 26 155 26 838 0
965 -2 11 -6 43 -9 70 -3 28 -10 91 -16 140 -6 50 -12 106 -14 125 l-3 35
-2857 0 -2856 0 -10 -30 c-7 -23 -227 -898 -245 -975 -3 -13 -38 -156 -50
-200 -16 -65 -37 -149 -41 -170 -3 -14 -8 -34 -11 -45 -4 -11 -8 -25 -9 -31
-1 -5 -11 -47 -23 -92 -11 -45 -21 -87 -21 -94 0 -11 426 -13 2221 -12 l2221
1 -6 -32 c-13 -65 -116 -364 -156 -450 -5 -11 -31 -67 -58 -125 -158 -342
-417 -709 -683 -970 -425 -417 -930 -702 -1499 -845 -155 -38 -240 -56 -350
-71 -25 -3 -52 -8 -61 -9 -16 -3 -116 -12 -224 -20 -230 -17 -550 1 -810 45
-97 17 -157 30 -320 71 -221 56 -571 206 -798 343 -340 205 -596 429 -891 776
-176 207 -412 606 -505 855 -13 33 -27 69 -32 80 -32 70 -119 370 -135 463 -3
15 -7 35 -10 44 -6 20 -7 25 -28 163 -26 169 -31 251 -31 500 0 219 8 391 19
426 3 8 7 39 10 70 7 76 51 282 87 412 28 98 43 145 109 322 33 90 165 356
227 459 56 92 191 297 202 306 3 3 41 48 83 100 272 338 601 619 974 833 85
48 323 164 384 186 19 8 49 19 65 26 154 67 562 171 740 189 22 2 74 7 115 11
41 4 89 9 105 11 43 5 415 5 445 0 14 -3 61 -7 105 -11 78 -6 265 -31 295 -40
8 -2 31 -7 50 -10 19 -3 42 -8 50 -10 8 -2 29 -7 45 -9 60 -11 309 -87 428
-132 383 -146 770 -386 1067 -660 25 -23 60 -56 79 -73 18 -17 35 -31 38 -31
4 0 305 304 931 938 l219 222 -47 48 c-102 101 -257 242 -335 305 -107 85
-143 113 -225 173 -401 293 -896 549 -1355 699 -171 55 -365 109 -465 129 -14
2 -70 14 -125 25 -144 28 -328 54 -475 66 -41 4 -86 9 -100 12 -28 5 -656 14
-661 9z"/>
</g>
</svg>
