<?xml version="1.0" standalone="no"?>
<!DOCTYPE svg PUBLIC "-//W3C//DTD SVG 20010904//EN"
 "http://www.w3.org/TR/2001/REC-SVG-20010904/DTD/svg10.dtd">
<svg version="1.0" xmlns="http://www.w3.org/2000/svg"
 width="720.000000pt" height="720.000000pt" viewBox="0 0 720.000000 720.000000"
 preserveAspectRatio="xMidYMid meet">
<metadata>
Created by potrace 1.14, written by Peter Selinger 2001-2017
</metadata>
<g transform="translate(0.000000,720.000000) scale(0.100000,-0.100000)"
fill="#000000" stroke="none">
<path d="M3740 6019 c-660 -76 -1224 -558 -1396 -1192 -46 -172 -54 -298 -54
-837 0 -509 6 -613 40 -777 71 -340 277 -695 528 -909 413 -352 929 -479 1454
-359 253 59 482 175 689 351 154 131 234 233 326 413 l43 86 0 -402 0 -403
105 0 105 0 0 975 0 975 -345 0 -345 0 -4 23 c-2 12 -9 60 -16 107 -29 214
-161 482 -346 700 -295 350 -775 538 -1314 517 -159 -6 -347 -38 -396 -66 -17
-10 -44 -27 -60 -37 l-29 -19 35 49 c178 248 430 436 713 531 165 55 265 70
482 69 204 -1 300 -13 462 -60 219 -63 369 -151 533 -314 213 -210 337 -440
378 -697 l16 -103 102 0 102 0 -5 48 c-15 181 -55 323 -131 473 -227 445 -573
716 -1053 823 -196 43 -429 57 -619 35z m-98 -968 c196 -43 385 -125 527 -231
254 -189 476 -548 507 -821 l7 -59 -377 0 -377 0 3 -102 3 -103 719 -3 719 -2
-6 -183 c-6 -208 -23 -319 -72 -464 -75 -224 -233 -464 -403 -611 l-62 -54 45
84 45 83 0 308 0 307 -820 0 -820 0 0 -100 0 -100 715 0 715 0 0 -167 c0 -182
-9 -261 -41 -393 -35 -142 -44 -157 -108 -189 -83 -42 -219 -88 -334 -113
-147 -31 -428 -31 -572 0 -224 48 -408 131 -579 261 -241 183 -425 451 -510
744 -60 206 -61 222 -61 842 0 622 1 635 62 839 31 101 32 102 167 157 199 80
319 99 596 94 172 -2 234 -7 312 -24z"/>
<path d="M2118 4813 c-101 -104 -129 -136 -190 -223 -124 -177 -208 -372 -261
-605 -19 -84 -21 -130 -25 -675 -4 -626 -1 -693 45 -880 47 -194 121 -363 238
-540 233 -355 588 -595 1022 -692 85 -19 128 -22 328 -22 217 -1 237 1 350 28
340 80 635 250 856 492 56 63 139 175 139 189 0 3 -24 -12 -52 -34 -108 -80
-317 -190 -444 -231 -21 -7 -93 -41 -159 -76 -138 -72 -288 -125 -425 -150
-133 -25 -392 -24 -520 0 -573 110 -1019 548 -1141 1121 -34 159 -41 331 -36
834 4 383 8 493 21 561 19 96 57 227 87 296 11 26 30 97 44 158 39 179 100
341 184 484 17 28 30 52 28 52 -2 0 -42 -39 -89 -87z"/>
<path d="M4880 2159 c-19 -28 -65 -84 -102 -124 l-68 -73 0 -356 0 -356 105 0
105 0 0 480 c0 264 -1 480 -2 480 -2 0 -19 -23 -38 -51z"/>
</g>
</svg>
